<svg width="100" height="100" viewBox="0 0 100 100" fill="none" xmlns="http://www.w3.org/2000/svg">
<g filter="url(#filter0_b_907_2)">
<circle cx="50" cy="50" r="50" fill="white" fill-opacity="0.3"/>
</g>
<path d="M33.7685 46.0909L37.0071 55.2741H37.1349L40.3736 46.0909H41.7585L37.7528 57H36.3892L32.3835 46.0909H33.7685ZM43.2873 57V48.8182H44.5444V57H43.2873ZM43.9265 47.4545C43.6815 47.4545 43.4702 47.3711 43.2926 47.2042C43.1186 47.0373 43.0316 46.8366 43.0316 46.6023C43.0316 46.3679 43.1186 46.1673 43.2926 46.0004C43.4702 45.8335 43.6815 45.75 43.9265 45.75C44.1715 45.75 44.381 45.8335 44.555 46.0004C44.7326 46.1673 44.8214 46.3679 44.8214 46.6023C44.8214 46.8366 44.7326 47.0373 44.555 47.2042C44.381 47.3711 44.1715 47.4545 43.9265 47.4545ZM50.2773 57.1705C49.4889 57.1705 48.8089 56.9964 48.2371 56.6484C47.6689 56.2969 47.2304 55.8068 46.9214 55.1783C46.616 54.5462 46.4633 53.8111 46.4633 52.973C46.4633 52.1349 46.616 51.3963 46.9214 50.7571C47.2304 50.1143 47.6601 49.6136 48.2105 49.255C48.7645 48.8928 49.4108 48.7116 50.1494 48.7116C50.5756 48.7116 50.9964 48.7827 51.4118 48.9247C51.8273 49.0668 52.2055 49.2976 52.5464 49.6172C52.8873 49.9332 53.159 50.3523 53.3614 50.8743C53.5638 51.3963 53.665 52.0391 53.665 52.8026V53.3352H47.3582V52.2486H52.3866C52.3866 51.7869 52.2943 51.375 52.1096 51.0128C51.9285 50.6506 51.6693 50.3647 51.3319 50.1552C50.9981 49.9457 50.604 49.8409 50.1494 49.8409C49.6487 49.8409 49.2155 49.9652 48.8497 50.2138C48.4875 50.4588 48.2087 50.7784 48.0134 51.1726C47.8181 51.5668 47.7204 51.9893 47.7204 52.4403V53.1648C47.7204 53.7827 47.827 54.3065 48.04 54.7362C48.2567 55.1623 48.5567 55.4872 48.9403 55.7109C49.3238 55.9311 49.7694 56.0412 50.2773 56.0412C50.6075 56.0412 50.9058 55.995 51.1721 55.9027C51.442 55.8068 51.6746 55.6648 51.8699 55.4766C52.0653 55.2848 52.2162 55.0469 52.3227 54.7628L53.5372 55.1037C53.4094 55.5156 53.1945 55.8778 52.8927 56.1903C52.5908 56.4993 52.218 56.7408 51.7741 56.9148C51.3302 57.0852 50.8312 57.1705 50.2773 57.1705ZM57.431 57L54.9381 48.8182H56.2591L58.0276 55.0824H58.1128L59.86 48.8182H61.2023L62.9282 55.0611H63.0134L64.7819 48.8182H66.1029L63.61 57H62.3742L60.5844 50.7145H60.4566L58.6668 57H57.431Z" fill="black"/>
<defs>
<filter id="filter0_b_907_2" x="-8" y="-8" width="116" height="116" filterUnits="userSpaceOnUse" color-interpolation-filters="sRGB">
<feFlood flood-opacity="0" result="BackgroundImageFix"/>
<feGaussianBlur in="BackgroundImageFix" stdDeviation="4"/>
<feComposite in2="SourceAlpha" operator="in" result="effect1_backgroundBlur_907_2"/>
<feBlend mode="normal" in="SourceGraphic" in2="effect1_backgroundBlur_907_2" result="shape"/>
</filter>
</defs>
</svg>
